{
  "accessors": [
    {
      "bufferView": 2,
      "componentType": 5126,
      "count": 724,
      "max": [
        2.96264386177063,
        5.464090824127197,
        3.0504817962646484
      ],
      "min": [
        -3.8015782833099365,
        -0.05266329273581505,
        -4.3811564445495605
      ],
      "type": "VEC3"
    },
    {
      "bufferView": 2,
      "byteOffset": 8688,
      "componentType": 5126,
      "count": 724,
      "max": [
        1.0,
        1.0,
        1.0
      ],
      "min": [
        -1.0,
        -1.0,
        -1.0
      ],
      "type": "VEC3"
    },
    {
      "bufferView": 1,
      "componentType": 5126,
      "count": 724,
      "max": [
        0.9907845258712769,
        0.9903258085250854
      ],
      "min": [
        0.2431008219718933,
        0.009731948375701904
      ],
      "type": "VEC2"
    },
    {
      "bufferView": 0,
      "componentType": 5125,
      "count": 1779,
      "type": "SCALAR"
    },
    {
      "bufferView": 2,
      "byteOffset": 17376,
      "componentType": 5126,
      "count": 2145,
      "max": [
        9.96037769317627,
        7.268944263458252,
        3.816537380218506
      ],
      "min": [
        -9.756087303161621,
        -0.13709679245948792,
        -9.495997428894043
      ],
      "type": "VEC3"
    },
    {
      "bufferView": 2,
      "byteOffset": 43116,
      "componentType": 5126,
      "count": 2145,
      "max": [
        1.0,
        1.0,
        1.0
      ],
      "min": [
        -1.0,
        -1.0,
        -1.0
      ],
      "type": "VEC3"
    },
    {
      "bufferView": 1,
      "byteOffset": 5792,
      "componentType": 5126,
      "count": 2145,
      "max": [
        0.99344402551651,
        0.9853628873825073
      ],
      "min": [
        0.014491632580757141,
        0.008925452828407288
      ],
      "type": "VEC2"
    },
    {
      "bufferView": 0,
      "byteOffset": 7116,
      "componentType": 5125,
      "count": 4962,
      "type": "SCALAR"
    },
    {
      "bufferView": 2,
      "byteOffset": 68856,
      "componentType": 5126,
      "count": 1015,
      "max": [
        2.813643455505371,
        5.854964733123779,
        4.519351482391357
      ],
      "min": [
        -5.278503894805908,
        0.0,
        -4.570154666900635
      ],
      "type": "VEC3"
    },
    {
      "bufferView": 2,
      "byteOffset": 81036,
      "componentType": 5126,
      "count": 1015,
      "max": [
        1.0,
        1.0,
        1.0
      ],
      "min": [
        -1.0,
        -1.0,
        -1.0
      ],
      "type": "VEC3"
    },
    {
      "bufferView": 1,
      "byteOffset": 22952,
      "componentType": 5126,
      "count": 1015,
      "max": [
        0.5516296029090881,
        0.9845274686813354
      ],
      "min": [
        0.006670427042990923,
        0.007981613278388977
      ],
      "type": "VEC2"
    },
    {
      "bufferView": 0,
      "byteOffset": 26964,
      "componentType": 5125,
      "count": 2793,
      "type": "SCALAR"
    }
  ],
  "asset": {
    "extras": {
      "author": "Lucas Philippe (https://sketchfab.com/lucasphilippe)",
      "license": "CC-BY-4.0 (http://creativecommons.org/licenses/by/4.0/)",
      "source": "https://sketchfab.com/3d-models/desert-village-cf52f4fcba9f493284fbcc1d446f7446",
      "title": "Desert Village"
    },
    "generator": "Sketchfab-12.67.0",
    "version": "2.0"
  },
  "bufferViews": [
    {
      "buffer": 0,
      "byteLength": 38136,
      "name": "floatBufferViews",
      "target": 34963
    },
    {
      "buffer": 0,
      "byteLength": 31072,
      "byteOffset": 38136,
      "byteStride": 8,
      "name": "floatBufferViews",
      "target": 34962
    },
    {
      "buffer": 0,
      "byteLength": 93216,
      "byteOffset": 69208,
      "byteStride": 12,
      "name": "floatBufferViews",
      "target": 34962
    }
  ],
  "buffers": [
    {
      "byteLength": 162424,
      "uri": "scene.bin"
    }
  ],
  "images": [
    {
      "uri": "textures/textura_casas01_03_baseColor.png"
    },
    {
      "uri": "textures/material_casa02_baseColor.png"
    }
  ],
  "materials": [
    {
      "doubleSided": true,
      "name": "textura_casas01_03",
      "pbrMetallicRoughness": {
        "baseColorTexture": {
          "index": 0
        }
      }
    },
    {
      "doubleSided": true,
      "name": "material_casa02",
      "pbrMetallicRoughness": {
        "baseColorTexture": {
          "index": 1
        }
      }
    }
  ],
  "meshes": [
    {
      "name": "Object_0",
      "primitives": [
        {
          "attributes": {
            "NORMAL": 1,
            "POSITION": 0,
            "TEXCOORD_0": 2
          },
          "indices": 3,
          "material": 0,
          "mode": 4
        }
      ]
    },
    {
      "name": "Object_1",
      "primitives": [
        {
          "attributes": {
            "NORMAL": 5,
            "POSITION": 4,
            "TEXCOORD_0": 6
          },
          "indices": 7,
          "material": 1,
          "mode": 4
        }
      ]
    },
    {
      "name": "Object_2",
      "primitives": [
        {
          "attributes": {
            "NORMAL": 9,
            "POSITION": 8,
            "TEXCOORD_0": 10
          },
          "indices": 11,
          "material": 0,
          "mode": 4
        }
      ]
    }
  ],
  "nodes": [
    {
      "children": [
        1
      ],
      "matrix": [
        1.0,
        0.0,
        0.0,
        0.0,
        0.0,
        2.220446049250313e-16,
        -1.0,
        0.0,
        0.0,
        1.0,
        2.220446049250313e-16,
        0.0,
        0.0,
        0.0,
        0.0,
        1.0
      ],
      "name": "Sketchfab_model"
    },
    {
      "children": [
        2
      ],
      "name": "root"
    },
    {
      "children": [
        3,
        5,
        7
      ],
      "matrix": [
        1.0,
        0.0,
        0.0,
        0.0,
        0.0,
        2.220446049250313e-16,
        1.0,
        0.0,
        0.0,
        -1.0,
        2.220446049250313e-16,
        0.0,
        0.0,
        0.0,
        0.0,
        1.0
      ],
      "name": "GLTF_SceneRootNode"
    },
    {
      "children": [
        4
      ],
      "matrix": [
        -0.9999999999999467,
        0.0,
        3.258413698858844e-07,
        0.0,
        0.0,
        1.0,
        0.0,
        0.0,
        -3.258413698858844e-07,
        0.0,
        -0.9999999999999467,
        0.0,
        8.144503593444824,
        0.0,
        0.0,
        1.0
      ],
      "name": "casa03_0"
    },
    {
      "mesh": 0,
      "name": "Object_4"
    },
    {
      "children": [
        6
      ],
      "matrix": [
        1.0,
        0.0,
        0.0,
        0.0,
        0.0,
        1.0,
        0.0,
        0.0,
        0.0,
        0.0,
        1.0,
        0.0,
        4.882765769958496,
        0.0,
        -14.38850212097168,
        1.0
      ],
      "name": "casa02_2"
    },
    {
      "mesh": 1,
      "name": "Object_6"
    },
    {
      "children": [
        8
      ],
      "name": "casa01_5"
    },
    {
      "mesh": 2,
      "name": "Object_8"
    }
  ],
  "samplers": [
    {
      "magFilter": 9729,
      "minFilter": 9987,
      "wrapS": 10497,
      "wrapT": 10497
    }
  ],
  "scene": 0,
  "scenes": [
    {
      "name": "Sketchfab_Scene",
      "nodes": [
        0
      ]
    }
  ],
  "textures": [
    {
      "sampler": 0,
      "source": 0
    },
    {
      "sampler": 0,
      "source": 1
    }
  ]
}
