{"accessors" : [{"bufferView" : 0, "byteOffset" : 0, "componentType" : 5123, "count" : 2367, "type" : "SCALAR", "max" : [2366], "min" : [0]}, {"bufferView" : 1, "byteOffset" : 0, "componentType" : 5126, "count" : 2367, "type" : "VEC3", "max" : [1031.2628173828125, 1079.66015625, 278.35205078125], "min" : [-1031.2628173828125, -44.41466522216797, -278.35205078125], "name" : "POSITION"}, {"bufferView" : 1, "byteOffset" : 12, "componentType" : 5126, "count" : 2367, "type" : "VEC3", "max" : [0.9886254072189331, 0.9965532422065735, 0.9968840479850769], "min" : [-0.997959315776825, -0.9983773231506348, -0.9959421157836914], "name" : "NORMAL"}, {"bufferView" : 1, "byteOffset" : 24, "componentType" : 5126, "count" : 2367, "type" : "VEC2", "max" : [4.0971150398254395, 4.112203121185303], "min" : [-3.1007814407348633, -3.1122031211853027], "name" : "TEXCOORD_0"}], "asset" : {"generator" : "Aspose.3D 24.12.0", "version" : "2.0"}, "buffers" : [{"uri" : "buffer.bin", "byteLength" : 80488}], "bufferViews" : [{"buffer" : 0, "byteOffset" : 0, "byteLength" : 4736, "target" : 34963}, {"buffer" : 0, "byteOffset" : 4740, "byteLength" : 75744, "byteStride" : 32, "target" : 34962}], "materials" : [{"name" : "Material #25.003", "pbrMetallicRoughness" : {"baseColorFactor" : [0.5879999995231628, 0.5879999995231628, 0.5879999995231628, 1], "metallicFactor" : 1, "roughnessFactor" : 1}, "emissiveFactor" : [0.5879999995231628, 0.5879999995231628, 0.5879999995231628], "alphaMode" : "OPAQUE", "doubleSided" : false}], "meshes" : [{"primitives" : [{"attributes" : {"POSITION" : 1, "NORMAL" : 2, "TEXCOORD_0" : 3}, "indices" : 0, "material" : 0, "mode" : 4}], "name" : "Mesh.018"}], "nodes" : [{"mesh" : 0, "name" : "Stone_desert_big_002"}], "scene" : 0, "scenes" : [{"nodes" : [0]}]}